<mxfile host="app.diagrams.net" modified="2024-07-04T15:55:00.552Z" agent="Mozilla/5.0 (Windows NT 10.0; Win64; x64) AppleWebKit/537.36 (KHTML, like Gecko) Chrome/126.0.0.0 Safari/537.36 Edg/126.0.0.0" version="24.6.4" etag="4zNf9WMUvnRKaw3EdvWZ" type="github">
  <diagram name="Pagina-1" id="OLSZ-y3oVcVk2Jd8Os8X">
    <mxGraphModel>
      <root>
        <mxCell id="0" />
        <mxCell id="1" parent="0" />
      </root>
    </mxGraphModel>
  </diagram>
</mxfile>
